<svg width="18" height="12" viewBox="0 0 18 12" xmlns="http://www.w3.org/2000/svg">
<path d="M0 10.9864L2.84198 0L5.94503 0L8.76463 10.9864L6.74317 10.9864L4.38604 1.21244H4.40096L2.02146 10.9864H0ZM1.83498 8.31601L1.83498 6.74653L6.95203 6.74653V8.31601H1.83498Z" />
<path d="M12.8307 11.15C12.239 11.15 11.7193 11.0583 11.2718 10.8748C10.8242 10.6863 10.4736 10.4161 10.22 10.064C9.96638 9.71193 9.83957 9.28795 9.83957 8.79206C9.83957 8.25154 9.98627 7.80773 10.2797 7.46061C10.578 7.10853 10.9784 6.83827 11.4806 6.64983C11.9829 6.45644 12.5398 6.33247 13.1515 6.27792C14.0565 6.18866 14.6881 6.10436 15.0461 6.02502C15.4092 5.94072 15.5907 5.80683 15.5907 5.62335C15.5907 5.61839 15.5907 5.61591 15.5907 5.61591C15.5907 5.61095 15.5907 5.60847 15.5907 5.60847C15.5907 5.26135 15.434 4.99357 15.1207 4.80514C14.8074 4.6167 14.3649 4.52248 13.793 4.52248C13.1913 4.52248 12.7288 4.6291 12.4056 4.84233C12.0873 5.0506 11.9282 5.38284 11.9282 5.83906L9.98876 5.83906C9.98876 5.2192 10.1529 4.69604 10.4811 4.26958C10.8143 3.83816 11.2693 3.51087 11.8461 3.28772C12.423 3.06458 13.0769 2.953 13.8079 2.953C14.4892 2.953 15.1133 3.05466 15.6802 3.25797C16.2471 3.46129 16.7021 3.76873 17.0452 4.18032C17.3883 4.59191 17.5599 5.10515 17.5599 5.72005C17.5599 5.82418 17.5599 5.92832 17.5599 6.03245C17.5599 6.13659 17.5599 6.24073 17.5599 6.34486V9.32018C17.5599 9.50862 17.5649 9.69457 17.5748 9.87805C17.5897 10.0566 17.6171 10.2177 17.6569 10.3615C17.7066 10.5202 17.7663 10.6541 17.8359 10.7632C17.9055 10.8723 17.9602 10.9467 18 10.9864H16.0606C16.0258 10.9516 15.9761 10.8847 15.9114 10.7855C15.8517 10.6814 15.797 10.5624 15.7473 10.4285C15.6976 10.2797 15.6603 10.121 15.6354 9.95243C15.6106 9.77887 15.5981 9.58796 15.5981 9.37969L15.986 9.64746C15.8368 9.94995 15.6081 10.2153 15.2998 10.4434C14.9964 10.6665 14.6334 10.8401 14.2107 10.964C13.788 11.088 13.328 11.15 12.8307 11.15ZM13.3081 9.61027C13.7159 9.61027 14.0938 9.54085 14.4419 9.402C14.79 9.26315 15.071 9.04992 15.2848 8.76231C15.4987 8.46974 15.6056 8.09534 15.6056 7.63913L15.6056 6.58289L16.083 7.11844C15.7647 7.23746 15.3818 7.33664 14.9342 7.41598C14.4867 7.49036 14.0342 7.54987 13.5767 7.5945C12.9899 7.64904 12.5473 7.7507 12.2489 7.89947C11.9555 8.04823 11.8088 8.29122 11.8088 8.62842C11.8088 8.9557 11.9331 9.20117 12.1818 9.36481C12.4304 9.52845 12.8059 9.61027 13.3081 9.61027Z" />
</svg>
